<svg width="24" height="24" viewBox="0 0 24 24" fill="none" xmlns="http://www.w3.org/2000/svg">
<path d="M4.97901 18.1993L4.97878 18.1991C4.48605 17.8317 4.02377 17.2423 3.68431 16.5657C3.3448 15.889 3.1499 15.1685 3.1499 14.5599V7.11994C3.1499 5.7874 4.1514 4.33514 5.4044 3.8685L5.40536 3.86814L10.3949 1.9983C10.395 1.99827 10.3951 1.99824 10.3952 1.99821C10.8187 1.83998 11.3931 1.75244 11.9899 1.75244C12.5867 1.75244 13.1611 1.83998 13.5846 1.99821C13.5847 1.99824 13.5848 1.99827 13.5849 1.9983L18.5744 3.86815L18.5754 3.8685C19.8284 4.33514 20.8299 5.7874 20.8299 7.11994V14.5499C20.8299 15.1638 20.6348 15.8843 20.2957 16.5592C19.9565 17.234 19.4943 17.8213 19.001 18.1891L19.0008 18.1893L14.7008 21.3993L14.7008 21.3992L14.6946 21.404C13.9652 21.9664 12.9973 22.2599 11.9999 22.2599C11.004 22.2599 10.0317 21.967 9.2781 21.4086C9.27794 21.4085 9.27779 21.4084 9.27763 21.4082L4.97901 18.1993ZM10.5751 2.47149L10.5744 2.47174L5.58444 4.34174L5.58374 4.342C5.03949 4.5469 4.56492 4.97585 4.22984 5.46065C3.89458 5.94571 3.6599 6.54313 3.6599 7.12994V14.5599C3.6599 15.1377 3.85882 15.7859 4.14165 16.3502C4.42437 16.9143 4.82319 17.4589 5.28076 17.8006L5.2808 17.8006L9.58046 21.0104C10.2591 21.5179 11.1432 21.7549 12.0012 21.7549C12.8593 21.7549 13.7449 21.5178 14.4277 21.0116L14.429 21.0106L18.729 17.8006L18.7299 17.7999C19.1913 17.4539 19.5901 16.91 19.8721 16.346C20.1541 15.7821 20.3499 15.1367 20.3499 14.5599V7.11994C20.3499 6.5371 20.1145 5.94212 19.78 5.45815C19.4453 4.97393 18.9722 4.544 18.4309 4.33384L18.4309 4.3338L18.4254 4.33174L13.4354 2.46174L13.4354 2.46165L13.4263 2.45845C13.0148 2.31321 12.4934 2.24985 11.9998 2.25119C11.507 2.25254 10.9851 2.31851 10.5751 2.47149Z" fill="white" stroke="white"/>
<path d="M10.3064 12.7737L10.66 13.1272L11.0135 12.7737L14.7835 9.00367C14.8783 8.90893 15.0417 8.90893 15.1364 9.00367C15.2312 9.09841 15.2312 9.26183 15.1364 9.35656L10.8364 13.6566C10.7851 13.7079 10.7245 13.7301 10.66 13.7301C10.5954 13.7301 10.5348 13.7079 10.4835 13.6566L8.87354 12.0466C8.77881 11.9518 8.77881 11.7884 8.87354 11.6937C8.96828 11.5989 9.1317 11.5989 9.22644 11.6937L10.3064 12.7737Z" fill="white" stroke="white"/>
</svg>
